# xmcd CD database file
#
# Track frame offsets:
#	187
#	16987
#	35287
#
# Disc length: 692 seconds
#
# Revision: 1
# Processed by: cddbd v1.5.2PL0 Copyright (c) Steve Scherf et al.
# Submitted via: CDex 1.70beta2
#
DISCID=1702b203
DTITLE=Flying Kids - 僕であるために
DYEAR=1996
DGENRE=Anime
TTITLE0=僕であるために
TTITLE1=21世紀になっても
TTITLE2=僕であるために(カラオケ)
EXTD=YEAR: 1996
EXTT0=
EXTT1=
EXTT2=
PLAYORDER=
